####
#
# OBJ File Generated by Meshlab
#
####
# Object table.obj
#
# Vertices: 156
# Faces: 340
#
####
vn -3.141592 -3.141607 3.141593
v 0.000000 595.000000 -394.000000
vn -3.141593 -3.141593 -3.141592
v 0.000000 595.000000 394.000000
vn -1.570796 4.712389 -1.570796
v 0.000000 645.000000 394.000000
vn 3.141592 -3.141593 -3.141593
v -320.000000 595.000000 394.000000
vn -1.570796 4.712389 1.570796
v 0.000000 645.000000 -394.000000
vn 1.570804 1.570791 -1.570796
v 50.000000 645.000000 -444.000000
vn 1.570796 1.570796 1.570792
v 50.000000 645.000000 444.000000
vn -1.570796 1.570799 1.570796
v -675.000000 645.000000 444.000000
vn 1.570796 4.712389 -1.570796
v -320.000000 645.000000 394.000000
vn -1.570796 -4.712389 1.570796
v 25.000000 595.000000 12.500000
vn -3.141592 3.141607 -3.141593
v 0.000000 -595.000000 394.000000
vn -1.570795 -1.570796 4.712389
v 0.000000 595.000000 444.000000
vn 1.570796 -1.570796 4.712388
v -320.000000 595.000000 444.000000
vn 4.712389 1.570796 -1.570795
v 50.000000 -595.000000 394.000000
vn 4.712389 -1.570797 -1.570796
v 50.000000 595.000000 394.000000
vn 1.570797 4.712389 1.570796
v -320.000000 645.000000 -394.000000
vn -1.570795 1.570796 -4.712389
v 0.000000 -595.000000 -444.000000
vn -1.570796 -1.570796 -4.712389
v 0.000000 595.000000 -444.000000
vn 3.141593 -3.141593 3.141592
v -320.000000 595.000000 -394.000000
vn -3.141593 3.141593 3.141592
v 0.000000 -595.000000 -394.000000
vn 4.712389 -1.570796 1.570795
v 50.000000 595.000000 -394.000000
vn 4.712389 -1.570797 -1.570796
v 50.000000 595.000000 -12.500000
vn -1.570796 -4.712389 -1.570796
v 25.000000 595.000000 -12.500000
vn -1.570796 1.570796 4.712389
v 0.000000 -595.000000 444.000000
vn 3.141593 3.141593 -3.141592
v -320.000000 -595.000000 394.000000
vn 1.570804 -1.570791 1.570796
v 50.000000 -645.000000 444.000000
vn -1.570796 -1.570796 1.570799
v -675.000000 -645.000000 444.000000
vn 1.570795 1.570796 4.712389
v -320.000000 -595.000000 444.000000
vn -1.570796 -4.712389 1.570796
v 0.000000 -645.000000 -394.000000
vn -1.570796 4.712389 -1.570796
v 25.000000 -595.000000 -12.500000
vn -1.570796 -4.712389 -1.570796
v 0.000000 -645.000000 394.000000
vn 1.570797 -4.712389 -1.570796
v -320.000000 -645.000000 394.000000
vn 4.712389 1.570797 1.570796
v 50.000000 -595.000000 12.500000
vn -1.570796 4.712389 1.570796
v 25.000000 -595.000000 12.500000
vn 1.570796 -1.570796 -1.570792
v 50.000000 -645.000000 -444.000000
vn -1.570796 1.570796 -1.570799
v -675.000000 645.000000 -444.000000
vn 1.570795 -1.570796 -4.712389
v -320.000000 595.000000 -444.000000
vn 1.570796 1.570796 -4.712388
v -320.000000 -595.000000 -444.000000
vn 3.141592 3.141593 3.141593
v -320.000000 -595.000000 -394.000000
vn 4.712389 1.570797 1.570796
v 50.000000 -595.000000 -394.000000
vn -1.570796 -1.570799 -1.570796
v -675.000000 -645.000000 -444.000000
vn 1.570796 -4.712389 1.570796
v -320.000000 -645.000000 -394.000000
vn 4.712389 1.570796 -1.570796
v 50.000000 -595.000000 -12.500000
vn 4.712389 -1.570796 1.570796
v 50.000000 595.000000 12.500000
vn -1.570796 4.712389 1.570796
v -370.000000 645.000000 -394.000000
vn 1.570796 4.712389 1.570796
v -575.000000 645.000000 -394.000000
vn -1.570796 4.712389 1.570796
v -625.000000 645.000000 -394.000000
vn -1.570796 1.570797 1.570796
v -675.000000 645.000000 -394.000000
vn -1.570796 1.570796 -1.570797
v -675.000000 -595.000000 -444.000000
vn -1.570795 1.570796 -4.712389
v -370.000000 -595.000000 -444.000000
vn 1.570796 1.570796 -4.712388
v -575.000000 -595.000000 -444.000000
vn -1.570795 1.570796 -4.712389
v -625.000000 -595.000000 -444.000000
vn -1.570796 -1.570797 -1.570796
v -675.000000 -645.000000 394.000000
vn -1.570796 -4.712389 -1.570796
v -370.000000 -645.000000 394.000000
vn 1.570796 -4.712389 -1.570796
v -575.000000 -645.000000 394.000000
vn -1.570796 -4.712389 -1.570796
v -625.000000 -645.000000 394.000000
vn -1.570796 -1.570796 1.570797
v -675.000000 595.000000 444.000000
vn -1.570795 -1.570796 4.712389
v -370.000000 595.000000 444.000000
vn 1.570796 -1.570796 4.712388
v -575.000000 595.000000 444.000000
vn -1.570795 -1.570796 4.712389
v -625.000000 595.000000 444.000000
vn -1.570796 4.712389 -1.570796
v -370.000000 645.000000 394.000000
vn 4.712389 -1.570796 1.570796
v -320.000000 595.000000 12.500000
vn 4.712389 -1.570797 -1.570796
v -320.000000 595.000000 -12.500000
vn -3.141592 -3.141607 3.141593
v -370.000000 595.000000 -394.000000
vn -1.570796 4.712389 -1.570796
v -625.000000 645.000000 394.000000
vn 1.570796 4.712389 -1.570796
v -575.000000 645.000000 394.000000
vn 3.141592 -3.141593 -3.141593
v -575.000000 595.000000 394.000000
vn 3.141593 -3.141593 3.141592
v -575.000000 595.000000 -394.000000
vn -3.141593 -3.141593 -3.141592
v -370.000000 595.000000 394.000000
vn -3.141592 -3.141593 3.141593
v -625.000000 595.000000 -394.000000
vn -1.570796 1.570796 -1.570796
v -675.000000 645.000000 394.000000
vn -3.141593 -3.141593 -3.141592
v -625.000000 595.000000 394.000000
vn -1.570796 -1.570796 1.570796
v -675.000000 595.000000 -394.000000
vn -1.570796 -1.570796 -1.570796
v -675.000000 595.000000 -444.000000
vn -1.570796 -1.570796 -4.712388
v -370.000000 595.000000 -444.000000
vn 1.570795 -1.570796 -4.712389
v -575.000000 595.000000 -444.000000
vn -1.570796 -1.570796 -4.712388
v -625.000000 595.000000 -444.000000
vn -1.570796 -1.570796 -1.570796
v -675.000000 595.000000 394.000000
vn -1.570796 1.570796 4.712388
v -370.000000 -595.000000 444.000000
vn -3.141592 3.141607 -3.141593
v -370.000000 -595.000000 394.000000
vn -1.570796 1.570796 4.712388
v -625.000000 -595.000000 444.000000
vn 1.570795 1.570796 4.712389
v -575.000000 -595.000000 444.000000
vn 3.141593 3.141593 -3.141592
v -575.000000 -595.000000 394.000000
vn -1.570796 1.570796 1.570796
v -675.000000 -595.000000 444.000000
vn -1.570796 1.570796 -1.570796
v -675.000000 -595.000000 394.000000
vn -3.141592 3.141593 -3.141593
v -625.000000 -595.000000 394.000000
vn -1.570796 -4.712389 1.570796
v -370.000000 -645.000000 -394.000000
vn 4.712389 1.570797 1.570796
v -320.000000 -595.000000 12.500000
vn 4.712389 1.570796 -1.570796
v -320.000000 -595.000000 -12.500000
vn -1.570796 -4.712389 1.570796
v -625.000000 -645.000000 -394.000000
vn 1.570796 -4.712389 1.570796
v -575.000000 -645.000000 -394.000000
vn 3.141592 3.141593 3.141593
v -575.000000 -595.000000 -394.000000
vn -3.141593 3.141593 3.141592
v -370.000000 -595.000000 -394.000000
vn -1.570796 -1.570796 1.570796
v -675.000000 -645.000000 -394.000000
vn -1.570796 1.570796 1.570796
v -675.000000 -595.000000 -394.000000
vn -3.141593 3.141593 3.141592
v -625.000000 -595.000000 -394.000000
vn -1.570796 -4.712389 1.570796
v -345.000000 595.000000 12.500000
vn -1.570796 4.712389 -1.570796
v -345.000000 -595.000000 -12.500000
vn -1.570796 4.712389 1.570796
v -345.000000 -595.000000 12.500000
vn -1.570796 -4.712389 -1.570796
v -345.000000 595.000000 -12.500000
vn -1.570795 -1.570796 -1.570796
v -320.000000 -594.000000 -449.000000
vn -4.712389 1.570796 -1.570796
v -320.000000 594.000000 -393.000000
vn -1.570796 1.570796 -1.570798
v -320.000000 594.000000 -449.000000
vn 1.570795 1.570796 -1.570796
v -295.000000 594.000000 -449.000000
vn 1.570796 -1.570796 -1.570798
v -295.000000 -594.000000 -449.000000
vn -1.570796 1.570796 1.570796
v -320.000000 650.000000 393.000000
vn -1.570796 1.570796 -1.570796
v -320.000000 650.000000 -393.000000
vn 4.712389 1.570796 -1.570796
v -295.000000 594.000000 -393.000000
vn -4.712389 1.570796 1.570796
v -320.000000 594.000000 393.000000
vn 1.570796 1.570796 -1.570796
v -295.000000 650.000000 -393.000000
vn 1.570796 1.570796 1.570796
v -295.000000 650.000000 393.000000
vn -1.570795 1.570796 1.570796
v -320.000000 594.000000 449.000000
vn 4.712389 1.570796 1.570796
v -295.000000 594.000000 393.000000
vn -4.712389 -1.570796 1.570796
v -320.000000 -594.000000 393.000000
vn -1.570796 -1.570796 1.570798
v -320.000000 -594.000000 449.000000
vn 1.570796 1.570796 1.570798
v -295.000000 594.000000 449.000000
vn -4.712389 -1.570796 -1.570796
v -320.000000 -594.000000 -393.000000
vn 1.570795 -1.570796 1.570796
v -295.000000 -594.000000 449.000000
vn -1.570796 -1.570796 -1.570796
v -320.000000 -650.000000 -393.000000
vn -1.570796 -1.570796 1.570796
v -320.000000 -650.000000 393.000000
vn 4.712389 -1.570796 1.570796
v -295.000000 -594.000000 393.000000
vn 1.570796 -1.570796 1.570796
v -295.000000 -650.000000 393.000000
vn 1.570796 -1.570796 -1.570796
v -295.000000 -650.000000 -393.000000
vn 4.712389 -1.570796 -1.570796
v -295.000000 -594.000000 -393.000000
vn -1.570795 -1.570796 -1.570796
v -575.000000 -594.000000 -449.000000
vn -4.712389 1.570796 -1.570796
v -575.000000 594.000000 -393.000000
vn -1.570796 1.570796 -1.570798
v -575.000000 594.000000 -449.000000
vn 1.570795 1.570796 -1.570796
v -550.000000 594.000000 -449.000000
vn 1.570796 -1.570796 -1.570798
v -550.000000 -594.000000 -449.000000
vn -1.570796 1.570796 1.570796
v -575.000000 650.000000 393.000000
vn -1.570796 1.570796 -1.570796
v -575.000000 650.000000 -393.000000
vn 4.712389 1.570796 -1.570796
v -550.000000 594.000000 -393.000000
vn -4.712389 1.570796 1.570796
v -575.000000 594.000000 393.000000
vn 1.570796 1.570796 -1.570796
v -550.000000 650.000000 -393.000000
vn 1.570796 1.570796 1.570796
v -550.000000 650.000000 393.000000
vn -1.570795 1.570796 1.570796
v -575.000000 594.000000 449.000000
vn 4.712389 1.570796 1.570796
v -550.000000 594.000000 393.000000
vn -4.712389 -1.570796 1.570796
v -575.000000 -594.000000 393.000000
vn -1.570796 -1.570796 1.570798
v -575.000000 -594.000000 449.000000
vn 1.570796 1.570796 1.570798
v -550.000000 594.000000 449.000000
vn -4.712389 -1.570796 -1.570796
v -575.000000 -594.000000 -393.000000
vn 1.570795 -1.570796 1.570796
v -550.000000 -594.000000 449.000000
vn -1.570796 -1.570796 -1.570796
v -575.000000 -650.000000 -393.000000
vn -1.570796 -1.570796 1.570796
v -575.000000 -650.000000 393.000000
vn 4.712389 -1.570796 1.570796
v -550.000000 -594.000000 393.000000
vn 1.570796 -1.570796 1.570796
v -550.000000 -650.000000 393.000000
vn 1.570796 -1.570796 -1.570796
v -550.000000 -650.000000 -393.000000
vn 4.712389 -1.570796 -1.570796
v -550.000000 -594.000000 -393.000000
vn -1.570796 -1.570795 -1.570796
v 50.000000 -650.000000 -449.000000
vn -1.570796 1.570795 1.570796
v 50.000000 650.000000 449.000000
vn -1.570796 1.570796 -1.570795
v 50.000000 650.000000 -449.000000
vn 1.570796 1.570795 -1.570796
v 75.000000 650.000000 -449.000000
vn 1.570796 -1.570796 -1.570795
v 75.000000 -650.000000 -449.000000
vn -1.570796 -1.570796 1.570795
v 50.000000 -650.000000 449.000000
vn 1.570796 1.570796 1.570795
v 75.000000 650.000000 449.000000
vn 1.570796 -1.570795 1.570796
v 75.000000 -650.000000 449.000000
# 156 vertices, 0 vertices normals

f 1//1 2//2 3//3
f 4//4 3//3 2//2
f 5//5 1//1 3//3
f 6//6 5//5 3//3
f 7//7 6//6 3//3
f 8//8 7//7 3//3
f 8//8 3//3 9//9
f 4//4 9//9 3//3
f 10//10 2//2 1//1
f 11//11 12//12 2//2
f 13//13 2//2 12//12
f 14//14 11//11 2//2
f 14//14 2//2 15//15
f 10//10 15//15 2//2
f 4//4 2//2 13//13
f 16//16 1//1 5//5
f 17//17 1//1 18//18
f 19//19 18//18 1//1
f 17//17 20//20 1//1
f 21//21 1//1 20//20
f 21//21 22//22 1//1
f 23//23 1//1 22//22
f 19//19 1//1 16//16
f 10//10 1//1 23//23
f 16//16 5//5 6//6
f 11//11 24//24 12//12
f 7//7 12//12 24//24
f 13//13 12//12 7//7
f 25//25 24//24 11//11
f 7//7 24//24 26//26
f 27//27 26//26 24//24
f 27//27 24//24 28//28
f 25//25 28//28 24//24
f 29//29 11//11 20//20
f 30//30 20//20 11//11
f 29//29 31//31 11//11
f 32//32 11//11 31//31
f 14//14 33//33 11//11
f 34//34 11//11 33//33
f 25//25 11//11 32//32
f 34//34 30//30 11//11
f 35//35 17//17 18//18
f 35//35 18//18 6//6
f 36//36 6//6 18//18
f 37//37 36//36 18//18
f 19//19 37//37 18//18
f 38//38 20//20 17//17
f 39//39 29//29 20//20
f 21//21 20//20 40//40
f 30//30 40//40 20//20
f 39//39 20//20 38//38
f 38//38 17//17 35//35
f 26//26 31//31 29//29
f 32//32 31//31 26//26
f 26//26 29//29 35//35
f 41//41 35//35 29//29
f 41//41 29//29 42//42
f 39//39 42//42 29//29
f 33//33 43//43 22//22
f 23//23 22//22 43//43
f 6//6 22//22 21//21
f 44//44 22//22 6//6
f 44//44 33//33 22//22
f 26//26 40//40 43//43
f 30//30 43//43 40//40
f 33//33 26//26 43//43
f 23//23 43//43 30//30
f 6//6 21//21 40//40
f 35//35 6//6 40//40
f 26//26 35//35 40//40
f 15//15 6//6 7//7
f 15//15 44//44 6//6
f 45//45 16//16 6//6
f 46//46 45//45 6//6
f 47//47 46//46 6//6
f 48//48 47//47 6//6
f 36//36 48//48 6//6
f 49//49 35//35 41//41
f 50//50 38//38 35//35
f 51//51 50//50 35//35
f 52//52 51//51 35//35
f 49//49 52//52 35//35
f 15//15 7//7 26//26
f 14//14 26//26 33//33
f 14//14 15//15 26//26
f 53//53 26//26 27//27
f 54//54 32//32 26//26
f 55//55 54//54 26//26
f 56//56 55//55 26//26
f 53//53 56//56 26//26
f 57//57 7//7 8//8
f 58//58 13//13 7//7
f 59//59 58//58 7//7
f 60//60 59//59 7//7
f 57//57 60//60 7//7
f 34//34 33//33 44//44
f 10//10 44//44 15//15
f 10//10 34//34 44//44
f 61//61 9//9 16//16
f 4//4 16//16 9//9
f 61//61 16//16 45//45
f 62//62 16//16 4//4
f 63//63 19//19 16//16
f 63//63 16//16 62//62
f 8//8 9//9 61//61
f 64//64 45//45 46//46
f 64//64 61//61 45//45
f 65//65 66//66 46//46
f 67//67 46//46 66//66
f 47//47 65//65 46//46
f 68//68 64//64 46//46
f 68//68 46//46 67//67
f 8//8 61//61 66//66
f 67//67 66//66 61//61
f 8//8 66//66 65//65
f 64//64 69//69 61//61
f 67//67 61//61 69//69
f 70//70 65//65 47//47
f 71//71 8//8 65//65
f 72//72 71//71 65//65
f 70//70 72//72 65//65
f 73//73 47//47 48//48
f 73//73 70//70 47//47
f 74//74 48//48 36//36
f 73//73 48//48 74//74
f 75//75 36//36 37//37
f 75//75 76//76 36//36
f 77//77 36//36 76//76
f 74//74 36//36 77//77
f 78//78 8//8 71//71
f 78//78 57//57 8//8
f 78//78 71//71 72//72
f 79//79 28//28 13//13
f 4//4 13//13 28//28
f 79//79 13//13 58//58
f 27//27 28//28 79//79
f 25//25 4//4 28//28
f 69//69 58//58 59//59
f 80//80 79//79 58//58
f 80//80 58//58 69//69
f 81//81 82//82 59//59
f 67//67 59//59 82//82
f 60//60 81//81 59//59
f 67//67 69//69 59//59
f 27//27 79//79 82//82
f 83//83 82//82 79//79
f 81//81 27//27 82//82
f 83//83 67//67 82//82
f 83//83 79//79 80//80
f 81//81 84//84 27//27
f 53//53 27//27 84//84
f 85//85 84//84 81//81
f 85//85 53//53 84//84
f 86//86 81//81 60//60
f 85//85 81//81 86//86
f 72//72 60//60 57//57
f 86//86 60//60 72//72
f 78//78 72//72 57//57
f 87//87 42//42 32//32
f 39//39 32//32 42//42
f 87//87 32//32 54//54
f 88//88 25//25 32//32
f 89//89 32//32 39//39
f 89//89 88//88 32//32
f 41//41 42//42 87//87
f 80//80 54//54 55//55
f 80//80 87//87 54//54
f 90//90 91//91 55//55
f 92//92 55//55 91//91
f 56//56 90//90 55//55
f 83//83 80//80 55//55
f 83//83 55//55 92//92
f 41//41 87//87 91//91
f 92//92 91//91 87//87
f 41//41 91//91 90//90
f 93//93 87//87 80//80
f 92//92 87//87 93//93
f 86//86 90//90 56//56
f 94//94 41//41 90//90
f 95//95 94//94 90//90
f 96//96 90//90 86//86
f 95//95 90//90 96//96
f 86//86 56//56 53//53
f 85//85 86//86 53//53
f 95//95 41//41 94//94
f 95//95 49//49 41//41
f 75//75 37//37 38//38
f 39//39 38//38 37//37
f 75//75 38//38 50//50
f 39//39 37//37 19//19
f 93//93 50//50 51//51
f 64//64 75//75 50//50
f 93//93 64//64 50//50
f 77//77 76//76 51//51
f 92//92 51//51 76//76
f 52//52 77//77 51//51
f 92//92 93//93 51//51
f 68//68 76//76 75//75
f 92//92 76//76 68//68
f 68//68 75//75 64//64
f 70//70 77//77 52//52
f 73//73 74//74 77//77
f 73//73 77//77 70//70
f 96//96 52//52 49//49
f 96//96 70//70 52//52
f 95//95 96//96 49//49
f 10//10 30//30 34//34
f 10//10 23//23 30//30
f 69//69 4//4 25//25
f 97//97 62//62 4//4
f 97//97 4//4 69//69
f 93//93 39//39 19//19
f 64//64 19//19 63//63
f 93//93 19//19 64//64
f 80//80 25//25 88//88
f 80//80 69//69 25//25
f 98//98 89//89 39//39
f 98//98 39//39 93//93
f 63//63 62//62 88//88
f 99//99 88//88 62//62
f 89//89 63//63 88//88
f 99//99 80//80 88//88
f 97//97 99//99 62//62
f 100//100 63//63 89//89
f 100//100 64//64 63//63
f 100//100 89//89 98//98
f 97//97 69//69 64//64
f 97//97 64//64 100//100
f 98//98 93//93 80//80
f 99//99 98//98 80//80
f 97//97 98//98 99//99
f 97//97 100//100 98//98
f 70//70 68//68 67//67
f 72//72 67//67 83//83
f 70//70 67//67 72//72
f 96//96 92//92 68//68
f 96//96 68//68 70//70
f 86//86 83//83 92//92
f 96//96 86//86 92//92
f 86//86 72//72 83//83
f 101//101 102//102 103//103
f 104//104 103//103 102//102
f 105//105 101//101 103//103
f 105//105 103//103 104//104
f 106//106 107//107 102//102
f 108//108 102//102 107//107
f 109//109 106//106 102//102
f 101//101 109//109 102//102
f 108//108 104//104 102//102
f 110//110 107//107 106//106
f 108//108 107//107 110//110
f 111//111 106//106 109//109
f 110//110 106//106 111//111
f 101//101 112//112 109//109
f 113//113 109//109 112//112
f 111//111 109//109 113//113
f 114//114 115//115 112//112
f 116//116 112//112 115//115
f 117//117 114//114 112//112
f 101//101 117//117 112//112
f 113//113 112//112 116//116
f 118//118 115//115 114//114
f 116//116 115//115 118//118
f 119//119 120//120 114//114
f 121//121 114//114 120//120
f 117//117 119//119 114//114
f 118//118 114//114 121//121
f 122//122 120//120 119//119
f 121//121 120//120 122//122
f 123//123 119//119 117//117
f 122//122 119//119 123//123
f 124//124 117//117 101//101
f 123//123 117//117 124//124
f 124//124 101//101 105//105
f 124//124 105//105 104//104
f 121//121 124//124 104//104
f 118//118 121//121 104//104
f 108//108 118//118 104//104
f 122//122 123//123 124//124
f 121//121 122//122 124//124
f 113//113 116//116 118//118
f 108//108 113//113 118//118
f 110//110 111//111 113//113
f 108//108 110//110 113//113
f 125//125 126//126 127//127
f 128//128 127//127 126//126
f 129//129 125//125 127//127
f 129//129 127//127 128//128
f 130//130 131//131 126//126
f 132//132 126//126 131//131
f 133//133 130//130 126//126
f 125//125 133//133 126//126
f 132//132 128//128 126//126
f 134//134 131//131 130//130
f 132//132 131//131 134//134
f 135//135 130//130 133//133
f 134//134 130//130 135//135
f 125//125 136//136 133//133
f 137//137 133//133 136//136
f 135//135 133//133 137//137
f 138//138 139//139 136//136
f 140//140 136//136 139//139
f 141//141 138//138 136//136
f 125//125 141//141 136//136
f 137//137 136//136 140//140
f 142//142 139//139 138//138
f 140//140 139//139 142//142
f 143//143 144//144 138//138
f 145//145 138//138 144//144
f 141//141 143//143 138//138
f 142//142 138//138 145//145
f 146//146 144//144 143//143
f 145//145 144//144 146//146
f 147//147 143//143 141//141
f 146//146 143//143 147//147
f 148//148 141//141 125//125
f 147//147 141//141 148//148
f 148//148 125//125 129//129
f 148//148 129//129 128//128
f 145//145 148//148 128//128
f 142//142 145//145 128//128
f 132//132 142//142 128//128
f 146//146 147//147 148//148
f 145//145 146//146 148//148
f 137//137 140//140 142//142
f 132//132 137//137 142//142
f 134//134 135//135 137//137
f 132//132 134//134 137//137
f 149//149 150//150 151//151
f 152//152 151//151 150//150
f 153//153 149//149 151//151
f 153//153 151//151 152//152
f 149//149 154//154 150//150
f 155//155 150//150 154//154
f 155//155 152//152 150//150
f 156//156 154//154 149//149
f 155//155 154//154 156//156
f 156//156 149//149 153//153
f 156//156 153//153 152//152
f 155//155 156//156 152//152
# 340 faces, 0 coords texture

# End of File
